# xmcd
#
# Track frame offsets:
#	150
#	19135
#	41318
#	61048
#	80780
#	102900
#	116163
#	135493
#	154525
#	169623
#	181460
#	194910
#	217445
#	237785
#	253940
#	273198
#	287655
#	304558
#
# Disc length: 4226 seconds
#
# Revision: 0
# Processed by: cddbd v1.5.2PL0 Copyright (c) Steve Scherf et al.
# Submitted via: dBpowerAMP V4.0
#
DISCID=03108012
DTITLE=Various Artist - Top Hits USA RA30
DYEAR=1900
DGENRE=
TTITLE0=Aaron Neville - Can't Stop my Heart From Loving You (The Rain Song)
TTITLE1=Bryan Adams - Have You Ever Really Loved a Woman
TTITLE2=Venessa Williams - Colors of The Wind (Radio Mix)
TTITLE3=Eagles - Learn to be Still
TTITLE4=Annie Lennox - No More 'i Love You's'
TTITLE5=Adam Ant - Wonderful (ac Mix)
TTITLE6=Hootie and The Blowfish - Let Her Cry (Radio Edit)
TTITLE7=Rod Stewart - Leave Virginia Alone
TTITLE8=Boyz II Men - Water Runs Dry
TTITLE9=Jim Brickman - Angel Eyes
TTITLE10=Ben Taylor - I Will
TTITLE11=Carly Simon - Touched by The Sun (ac Mix Radio Edit)
TTITLE12=Bruce Springsteen - Secret Garden
TTITLE13=Mike and The Mechanics - Over my Shoulder (Remix)
TTITLE14=Anita Baker and James Ingram - When You Love Someone (Remix)
TTITLE15=Rembrandts - I'll be There For You
TTITLE16=Michael Damian - Never Walk Away
TTITLE17=Buckshot LeFonque - Some Cow Fonque (More Tea Vicar) (Gold Bond Radio Mix)
EXTD=
EXTT0=
EXTT1=
EXTT2=
EXTT3=
EXTT4=
EXTT5=
EXTT6=
EXTT7=
EXTT8=
EXTT9=
EXTT10=
EXTT11=
EXTT12=
EXTT13=
EXTT14=
EXTT15=
EXTT16=
EXTT17=
PLAYORDER=
